<svg width="14" height="14" viewBox="0 0 14 14" fill="none" xmlns="http://www.w3.org/2000/svg">
<g id="wrapper">
<g id="Union">
<path d="M7 0.875122L1.75 2.62512V7.87512C1.75 10.7749 4.1002 13.1251 7 13.1251C9.89981 13.1251 12.25 10.7749 12.25 7.87512V2.62512L7 0.875122ZM11.2656 7.87512C11.2656 10.2308 9.35566 12.1407 7 12.1407C4.64434 12.1407 2.73438 10.2308 2.73438 7.87512V3.3634L7 1.8595L11.2656 3.3634V7.87512Z" fill="#1890FF"/>
<path d="M5.17278 6.49397C5.12716 6.44814 5.07294 6.41178 5.01323 6.38697C4.95352 6.36215 4.88949 6.34938 4.82483 6.34938C4.76017 6.34938 4.69615 6.36215 4.63644 6.38697C4.57672 6.41178 4.5225 6.44814 4.47688 6.49397C4.43106 6.53959 4.39469 6.59381 4.36988 6.65352C4.34507 6.71323 4.33229 6.77726 4.33229 6.84192C4.33229 6.90658 4.34507 6.9706 4.36988 7.03032C4.39469 7.09003 4.43106 7.14425 4.47688 7.18987L6.27474 8.98772C6.31789 9.03095 6.36914 9.06525 6.42556 9.08865C6.48198 9.11205 6.54246 9.1241 6.60354 9.1241C6.66463 9.1241 6.72511 9.11205 6.78153 9.08865C6.83795 9.06525 6.8892 9.03095 6.93235 8.98772L9.98802 5.93205C10.0312 5.8889 10.0655 5.83765 10.0889 5.78123C10.1123 5.72481 10.1244 5.66433 10.1244 5.60325C10.1244 5.54216 10.1123 5.48168 10.0889 5.42526C10.0655 5.36884 10.0312 5.31759 9.98802 5.27444L9.94974 5.23616C9.90658 5.19292 9.85533 5.15863 9.79891 5.13523C9.74249 5.11182 9.68201 5.09978 9.62093 5.09978C9.55984 5.09978 9.49936 5.11182 9.44294 5.13523C9.38652 5.15863 9.33527 5.19292 9.29212 5.23616L6.60286 7.92405L5.17278 6.49397Z" fill="#1890FF"/>
</g>
</g>
</svg>
