<svg width="14" height="14" viewBox="0 0 14 14" fill="none" xmlns="http://www.w3.org/2000/svg">
<g clipPath="url(#clip0_422_3586)">
<g clipPath="url(#clip1_422_3586)">
<path d="M12.75 0.752022H1.25C0.973438 0.752022 0.75 0.975459 0.75 1.25202V12.752C0.75 13.0286 0.973438 13.252 1.25 13.252H12.75C13.0266 13.252 13.25 13.0286 13.25 12.752V1.25202C13.25 0.975459 13.0266 0.752022 12.75 0.752022ZM12.125 8.00202H7.25V6.00202H12.125V8.00202ZM12.125 12.127H1.875V1.87702H12.125V5.00202H6.75C6.47344 5.00202 6.25 5.22546 6.25 5.50202V8.50202C6.25 8.77859 6.47344 9.00202 6.75 9.00202H12.125V12.127ZM8.0625 7.00202C8.0625 7.16778 8.12835 7.32675 8.24556 7.44396C8.36277 7.56117 8.52174 7.62702 8.6875 7.62702C8.85326 7.62702 9.01223 7.56117 9.12944 7.44396C9.24665 7.32675 9.3125 7.16778 9.3125 7.00202C9.3125 6.83626 9.24665 6.67729 9.12944 6.56008C9.01223 6.44287 8.85326 6.37702 8.6875 6.37702C8.52174 6.37702 8.36277 6.44287 8.24556 6.56008C8.12835 6.67729 8.0625 6.83626 8.0625 7.00202Z" fill="black" fill-opacity="0.85"/>
</g>
</g>
<defs>
<clipPath id="clip0_422_3586">
<rect width="14" height="14" fill="white"/>
</clipPath>
<clipPath id="clip1_422_3586">
<rect width="14" height="14" fill="white"/>
</clipPath>
</defs>
</svg>
